<?xml version="1.0" encoding="UTF-8" standalone="no"?><!DOCTYPE svg PUBLIC "-//W3C//DTD SVG 1.1//EN" "http://www.w3.org/Graphics/SVG/1.1/DTD/svg11.dtd"><svg width="100%" height="100%" viewBox="0 0 400 225" version="1.1" xmlns="http://www.w3.org/2000/svg" xmlns:xlink="http://www.w3.org/1999/xlink" xml:space="preserve" xmlns:serif="http://www.serif.com/" style="fill-rule:evenodd;clip-rule:evenodd;stroke-linejoin:round;stroke-miterlimit:2;"><rect id="Artboard1" x="0" y="0" width="400" height="225" style="fill:none;"/><clipPath id="_clip1"><rect x="0" y="0" width="400" height="225"/></clipPath><g clip-path="url(#_clip1)"><rect x="0" y="0" width="400" height="225" style="fill:#adadad;"/><path d="M422.945,-16.983l-284.553,284.553l-7.071,-7.071l284.553,-284.553l7.071,7.071Z" style="fill:#fff;"/><path d="M22.158,17.566c0,1.868 -0.683,3.28 -2.05,4.237c-1.368,0.957 -3.192,1.435 -5.473,1.435c-0.289,0 -0.508,-0.008 -0.656,-0.023c-0.157,1.469 -0.278,3.406 -0.364,5.812l-3.246,0c0.157,-1.008 0.485,-3.668 0.985,-7.98c0.297,-2.813 0.465,-5.238 0.504,-7.278l2.039,0c0.273,0 0.804,-0.011 1.593,-0.035c0.79,-0.023 1.469,-0.035 2.04,-0.035c1.281,0 2.373,0.34 3.275,1.02c0.902,0.679 1.353,1.629 1.353,2.847Zm-2.953,0.504c0,-1.445 -0.972,-2.168 -2.918,-2.168c-0.523,0 -1.074,0.059 -1.652,0.176c-0.039,0.664 -0.184,2.336 -0.434,5.016c0.18,0.015 0.395,0.023 0.645,0.023c2.906,0 4.359,-1.016 4.359,-3.047Z" style="fill-rule:nonzero;"/><path d="M28.205,12.363c0,0.399 -0.117,1.424 -0.351,3.076c-0.235,1.653 -0.438,3.28 -0.61,4.881c-0.382,3.617 -0.629,6.508 -0.738,8.672l-3.035,0.176c0,-0.133 0.127,-1.139 0.381,-3.018c0.254,-1.879 0.486,-3.822 0.697,-5.83c0.32,-3.047 0.481,-5.636 0.481,-7.769l3.175,-0.188Z" style="fill-rule:nonzero;"/><path d="M40.065,17.367c-0.625,4.234 -0.938,7.16 -0.938,8.777c0,0.821 0.067,1.743 0.199,2.766l-2.882,0.328c-0.047,-0.648 -0.071,-1.402 -0.071,-2.262l-0.176,0c-0.867,1.586 -2.156,2.379 -3.867,2.379c-0.984,0 -1.726,-0.369 -2.226,-1.107c-0.5,-0.738 -0.75,-1.748 -0.75,-3.029c0,-1.844 0.644,-3.506 1.933,-4.987c1.289,-1.48 3.293,-2.256 6.012,-2.326l0.516,-0.363l2.25,-0.176Zm-3,2.391c-1.633,0.015 -2.832,0.492 -3.598,1.429c-0.766,0.938 -1.148,2.204 -1.148,3.797c0,1.446 0.453,2.168 1.359,2.168c0.703,0 1.35,-0.511 1.939,-1.535c0.59,-1.023 0.963,-2.002 1.12,-2.935c0.156,-0.934 0.265,-1.909 0.328,-2.924Z" style="fill-rule:nonzero;"/><path d="M50.67,17.777l-0.621,2.379c-0.656,-0.219 -1.406,-0.328 -2.25,-0.328c-1.023,0 -1.824,0.397 -2.402,1.189c-0.578,0.793 -0.867,1.709 -0.867,2.749c0,2.179 0.828,3.269 2.484,3.269c0.945,0 1.984,-0.344 3.117,-1.031l-0.375,2.32c-0.953,0.695 -2.109,1.043 -3.469,1.043c-1.609,0 -2.798,-0.506 -3.568,-1.517c-0.77,-1.012 -1.154,-2.264 -1.154,-3.756c0,-1.805 0.617,-3.346 1.851,-4.623c1.235,-1.278 2.852,-1.916 4.852,-1.916c0.914,0 1.715,0.074 2.402,0.222Z" style="fill-rule:nonzero;"/><path d="M62.096,20.32c0,2.328 -2.504,3.539 -7.512,3.633c0,1.031 0.192,1.803 0.574,2.314c0.383,0.512 1.051,0.768 2.004,0.768c1.25,0 2.59,-0.402 4.02,-1.207l-0.363,2.32c-1.164,0.813 -2.641,1.219 -4.43,1.219c-1.594,0 -2.772,-0.478 -3.533,-1.435c-0.762,-0.957 -1.143,-2.225 -1.143,-3.803c0,-2.039 0.639,-3.674 1.916,-4.904c1.277,-1.231 2.791,-1.846 4.541,-1.846c1.211,0 2.16,0.25 2.848,0.75c0.719,0.515 1.078,1.246 1.078,2.191Zm-2.613,0.235c0,-0.758 -0.582,-1.137 -1.746,-1.137c-0.665,0 -1.293,0.244 -1.887,0.732c-0.594,0.489 -0.981,1.19 -1.16,2.104c3.195,-0.063 4.793,-0.629 4.793,-1.699Z" style="fill-rule:nonzero;"/><path d="M74.237,21.012c0,0.687 -0.106,1.976 -0.317,3.867c-0.211,1.89 -0.316,3.273 -0.316,4.148l-3.024,0.117c0,-0.375 0.129,-1.49 0.387,-3.345c0.258,-1.856 0.387,-3.166 0.387,-3.932c0,-0.812 -0.117,-1.375 -0.352,-1.687c-0.234,-0.313 -0.625,-0.469 -1.172,-0.469c-0.679,0 -1.34,0.465 -1.98,1.394c-0.641,0.93 -1.028,2.063 -1.16,3.399c-0.172,1.68 -0.301,3.187 -0.387,4.523l-2.965,0.117c0.141,-1.023 0.481,-3.964 1.02,-8.824c0.312,-2.976 0.468,-5.566 0.468,-7.769l3.223,-0.188c0,0.344 -0.146,1.537 -0.439,3.58c-0.293,2.043 -0.502,3.385 -0.627,4.026l0.164,0c0.914,-1.633 2.265,-2.45 4.054,-2.45c2.024,0 3.036,1.165 3.036,3.493Z" style="fill-rule:nonzero;"/><path d="M87.455,22.605c0,1.907 -0.607,3.53 -1.822,4.87c-1.215,1.339 -2.775,2.009 -4.682,2.009c-1.328,0 -2.468,-0.486 -3.421,-1.459c-0.954,-0.972 -1.43,-2.259 -1.43,-3.861c0,-1.898 0.609,-3.504 1.828,-4.816c1.219,-1.313 2.785,-1.969 4.699,-1.969c1.336,0 2.475,0.471 3.416,1.412c0.942,0.941 1.412,2.213 1.412,3.814Zm-2.965,0.258c0,-0.969 -0.209,-1.763 -0.626,-2.385c-0.418,-0.621 -0.987,-0.931 -1.706,-0.931c-0.921,0 -1.669,0.465 -2.244,1.394c-0.574,0.93 -0.861,1.953 -0.861,3.071c0,0.968 0.211,1.763 0.633,2.384c0.422,0.621 0.996,0.932 1.722,0.932c0.946,0 1.696,-0.459 2.25,-1.377c0.555,-0.918 0.832,-1.947 0.832,-3.088Z" style="fill-rule:nonzero;"/><path d="M93.737,12.363c0,0.399 -0.118,1.424 -0.352,3.076c-0.234,1.653 -0.438,3.28 -0.609,4.881c-0.383,3.617 -0.629,6.508 -0.739,8.672l-3.035,0.176c0,-0.133 0.127,-1.139 0.381,-3.018c0.254,-1.879 0.486,-3.822 0.697,-5.83c0.321,-3.047 0.481,-5.636 0.481,-7.769l3.176,-0.188Z" style="fill-rule:nonzero;"/><path d="M107.096,12.457c0,0.203 -0.133,1.047 -0.399,2.531c-0.265,1.485 -0.5,3.24 -0.703,5.268c-0.203,2.027 -0.304,3.935 -0.304,5.724c0,1.055 0.031,2.067 0.093,3.036l-2.707,0.14c-0.093,-0.648 -0.14,-1.41 -0.14,-2.285l-0.153,0.012c-0.937,1.633 -2.296,2.449 -4.078,2.449c-1.156,0 -2.045,-0.412 -2.666,-1.236c-0.621,-0.825 -0.931,-1.924 -0.931,-3.299c0,-2.024 0.541,-3.748 1.623,-5.174c1.082,-1.426 2.513,-2.139 4.295,-2.139c1.054,0 1.871,0.258 2.449,0.774l0.164,0c0.148,-1.641 0.273,-3.539 0.375,-5.696l3.082,-0.105Zm-3.609,7.699c-0.555,-0.351 -1.176,-0.527 -1.864,-0.527c-1.187,0 -2.074,0.451 -2.66,1.353c-0.586,0.903 -0.879,1.971 -0.879,3.205c0,1.961 0.633,2.942 1.899,2.942c0.757,0 1.461,-0.502 2.109,-1.506c0.648,-1.004 1.035,-2.096 1.16,-3.275l0.235,-2.192Z" style="fill-rule:nonzero;"/><path d="M118.428,20.32c0,2.328 -2.504,3.539 -7.512,3.633c0,1.031 0.192,1.803 0.574,2.314c0.383,0.512 1.051,0.768 2.004,0.768c1.25,0 2.59,-0.402 4.02,-1.207l-0.363,2.32c-1.164,0.813 -2.641,1.219 -4.43,1.219c-1.594,0 -2.772,-0.478 -3.533,-1.435c-0.762,-0.957 -1.143,-2.225 -1.143,-3.803c0,-2.039 0.639,-3.674 1.916,-4.904c1.278,-1.231 2.791,-1.846 4.541,-1.846c1.211,0 2.16,0.25 2.848,0.75c0.719,0.515 1.078,1.246 1.078,2.191Zm-2.613,0.235c0,-0.758 -0.582,-1.137 -1.746,-1.137c-0.664,0 -1.293,0.244 -1.887,0.732c-0.594,0.489 -0.981,1.19 -1.16,2.104c3.195,-0.063 4.793,-0.629 4.793,-1.699Z" style="fill-rule:nonzero;"/><path d="M128.119,17.766l-0.925,2.753c-0.524,-0.156 -1.071,-0.234 -1.641,-0.234c-1.414,0 -2.203,0.777 -2.367,2.332c-0.25,2.359 -0.442,4.496 -0.574,6.41l-2.942,0.117c0.547,-4.046 0.82,-6.781 0.82,-8.203c0,-0.82 -0.062,-1.82 -0.187,-3l2.906,-0.293c0.047,0.516 0.071,1.032 0.071,1.547l0.175,0c0.797,-1.125 1.766,-1.687 2.907,-1.687c0.539,0 1.125,0.086 1.757,0.258Z" style="fill-rule:nonzero;"/><path d="M248.03,-16.402l-284.553,284.553l-7.071,-7.071l284.553,-284.553l7.071,7.071Z" style="fill:#fff;"/><circle cx="356.31" cy="220.983" r="24.116" style="fill:#379752;"/><path d="M356.466,196.867l0.155,0.002l0.156,0.002l0.155,0.004l0.155,0.004l0.155,0.006l0.154,0.006l0.154,0.007l0.154,0.009l0.154,0.009l0.153,0.01l0.153,0.011l0.153,0.012l0.153,0.013l0.152,0.014l0.152,0.015l0.152,0.016l0.152,0.017l0.151,0.018l0.151,0.019l0.15,0.019l0.151,0.021l0.15,0.021l0.15,0.023l0.149,0.023l0.149,0.025l0.149,0.025l0.149,0.026l0.148,0.027l0.148,0.028l0.147,0.028l0.148,0.03l0.147,0.031l0.146,0.031l0.147,0.033l0.145,0.033l0.146,0.034l0.145,0.035l0.145,0.036l0.145,0.037l0.144,0.037l0.144,0.039l0.144,0.039l0.143,0.04l0.143,0.041l0.142,0.042l0.142,0.043l0.142,0.044l0.141,0.044l0.141,0.046l0.141,0.046l0.14,0.047l0.14,0.048l0.14,0.048l0.139,0.05l0.138,0.05l0.139,0.051l0.137,0.052l0.138,0.053l0.137,0.054l0.137,0.054l0.136,0.055l0.136,0.056l0.135,0.057l0.135,0.058l0.135,0.058l0.134,0.06l0.134,0.06l0.133,0.06l0.133,0.062l0.132,0.062l0.132,0.063l0.132,0.064l0.131,0.065l0.131,0.066l0.13,0.066l0.13,0.067l0.129,0.068l0.129,0.068l0.128,0.069l0.128,0.07l0.128,0.071l0.126,0.072l0.127,0.072l0.126,0.073l0.126,0.074l0.125,0.074l0.124,0.075l0.124,0.076l0.124,0.077l0.123,0.077l0.122,0.078l0.122,0.079l0.122,0.08l0.121,0.08l0.121,0.081l0.12,0.081l0.119,0.083l0.119,0.083l0.119,0.084l0.118,0.084l0.117,0.085l0.117,0.086l0.116,0.086l0.116,0.088l0.115,0.088l0.115,0.088l0.114,0.089l0.114,0.09l0.113,0.091l0.112,0.091l0.112,0.092l0.112,0.092l0.111,0.093l0.11,0.094l0.11,0.095l0.109,0.095l0.108,0.095l0.108,0.097l0.108,0.097l0.106,0.098l0.107,0.098l0.105,0.099l0.105,0.099l0.105,0.1l0.103,0.101l0.104,0.102l0.102,0.102l0.102,0.102l0.102,0.103l0.101,0.104l0.1,0.105l0.099,0.105l0.099,0.105l0.098,0.107l0.098,0.106l0.097,0.108l0.096,0.108l0.096,0.108l0.095,0.109l0.095,0.11l0.094,0.11l0.093,0.111l0.092,0.112l0.092,0.112l0.091,0.112l0.091,0.113l0.09,0.114l0.089,0.114l0.088,0.115l0.088,0.115l0.087,0.116l0.087,0.116l0.086,0.117l0.085,0.117l0.084,0.118l0.084,0.119l0.083,0.119l0.082,0.119l0.082,0.12l0.081,0.121l0.08,0.121l0.08,0.122l0.079,0.122l0.078,0.122l0.077,0.123l0.077,0.124l0.076,0.124l0.075,0.124l0.074,0.125l0.074,0.126l0.073,0.126l0.072,0.126l0.072,0.127l0.071,0.128l0.07,0.128l0.069,0.128l0.068,0.129l0.068,0.129l0.067,0.13l0.066,0.13l0.066,0.131l0.065,0.131l0.064,0.132l0.063,0.132l0.062,0.132l0.062,0.133l0.06,0.133l0.06,0.134l0.06,0.134l0.058,0.135l0.058,0.135l0.057,0.135l0.056,0.136l0.055,0.136l0.054,0.137l0.054,0.137l0.053,0.137l0.052,0.138l0.051,0.139l0.05,0.138l0.05,0.139l0.048,0.14l0.048,0.14l0.047,0.14l0.046,0.141l0.046,0.141l0.044,0.141l0.044,0.142l0.043,0.142l0.042,0.142l0.041,0.143l0.04,0.143l0.039,0.144l0.039,0.144l0.037,0.144l0.037,0.145l0.036,0.145l0.035,0.145l0.034,0.145l0.033,0.146l0.033,0.147l0.031,0.146l0.031,0.147l0.03,0.148l0.028,0.147l0.028,0.148l0.027,0.148l0.026,0.149l0.025,0.149l0.025,0.149l0.023,0.149l0.022,0.15l0.022,0.15l0.021,0.151l0.019,0.15l0.019,0.151l0.018,0.151l0.017,0.152l0.016,0.152l0.015,0.152l0.014,0.152l0.013,0.153l0.012,0.153l0.011,0.153l0.01,0.153l0.009,0.154l0.009,0.154l0.007,0.154l0.006,0.154l0.006,0.155l0.004,0.155l0.004,0.155l0.002,0.156l0.002,0.155l0,0.156l0,0.156l-0.002,0.156l-0.002,0.155l-0.004,0.155l-0.004,0.155l-0.006,0.155l-0.006,0.154l-0.007,0.154l-0.009,0.154l-0.009,0.154l-0.01,0.153l-0.011,0.153l-0.012,0.153l-0.013,0.153l-0.014,0.152l-0.015,0.152l-0.016,0.152l-0.017,0.152l-0.018,0.151l-0.019,0.151l-0.019,0.15l-0.021,0.151l-0.022,0.15l-0.022,0.15l-0.023,0.149l-0.025,0.149l-0.025,0.149l-0.026,0.149l-0.027,0.148l-0.028,0.148l-0.028,0.147l-0.03,0.148l-0.031,0.147l-0.031,0.146l-0.033,0.147l-0.033,0.146l-0.034,0.145l-0.035,0.146l-0.036,0.144l-0.037,0.145l-0.037,0.144l-0.039,0.144l-0.039,0.144l-0.04,0.143l-0.041,0.143l-0.042,0.142l-0.043,0.142l-0.044,0.142l-0.044,0.142l-0.046,0.141l-0.046,0.14l-0.047,0.14l-0.048,0.14l-0.048,0.14l-0.05,0.139l-0.05,0.138l-0.051,0.139l-0.052,0.138l-0.053,0.137l-0.054,0.137l-0.054,0.137l-0.055,0.136l-0.056,0.136l-0.057,0.135l-0.058,0.135l-0.058,0.135l-0.06,0.134l-0.06,0.134l-0.06,0.133l-0.062,0.133l-0.062,0.133l-0.063,0.132l-0.064,0.131l-0.065,0.131l-0.066,0.131l-0.066,0.13l-0.067,0.13l-0.068,0.129l-0.068,0.129l-0.069,0.128l-0.07,0.128l-0.071,0.128l-0.072,0.127l-0.072,0.126l-0.073,0.126l-0.074,0.126l-0.074,0.125l-0.075,0.124l-0.076,0.124l-0.077,0.124l-0.077,0.123l-0.078,0.123l-0.079,0.122l-0.08,0.121l-0.08,0.121l-0.081,0.121l-0.082,0.12l-0.082,0.119l-0.083,0.119l-0.084,0.119l-0.084,0.118l-0.085,0.117l-0.086,0.117l-0.087,0.116l-0.087,0.116l-0.088,0.115l-0.088,0.115l-0.089,0.114l-0.09,0.114l-0.091,0.113l-0.091,0.113l-0.092,0.112l-0.092,0.111l-0.093,0.111l-0.094,0.11l-0.095,0.11l-0.095,0.109l-0.096,0.108l-0.096,0.108l-0.097,0.108l-0.098,0.107l-0.098,0.106l-0.099,0.105l-0.099,0.105l-0.1,0.105l-0.101,0.104l-0.102,0.103l-0.102,0.102l-0.102,0.102l-0.104,0.102l-0.103,0.101l-0.105,0.1l-0.105,0.099l-0.105,0.099l-0.107,0.099l-0.106,0.097l-0.108,0.097l-0.108,0.097l-0.108,0.095l-0.109,0.095l-0.11,0.095l-0.11,0.094l-0.111,0.093l-0.112,0.092l-0.112,0.092l-0.112,0.091l-0.113,0.091l-0.114,0.09l-0.114,0.089l-0.115,0.089l-0.115,0.087l-0.116,0.088l-0.116,0.086l-0.117,0.086l-0.117,0.085l-0.118,0.084l-0.119,0.084l-0.119,0.083l-0.119,0.083l-0.12,0.081l-0.121,0.081l-0.121,0.08l-0.122,0.08l-0.122,0.079l-0.122,0.078l-0.123,0.077l-0.124,0.077l-0.124,0.076l-0.124,0.075l-0.125,0.074l-0.126,0.074l-0.126,0.073l-0.127,0.072l-0.126,0.072l-0.128,0.071l-0.128,0.07l-0.128,0.069l-0.129,0.069l-0.129,0.067l-0.13,0.067l-0.13,0.067l-0.131,0.065l-0.131,0.065l-0.132,0.064l-0.132,0.063l-0.132,0.062l-0.133,0.062l-0.133,0.061l-0.134,0.06l-0.134,0.059l-0.135,0.058l-0.135,0.058l-0.135,0.057l-0.136,0.056l-0.136,0.055l-0.137,0.054l-0.137,0.054l-0.138,0.053l-0.137,0.052l-0.139,0.051l-0.138,0.05l-0.139,0.05l-0.14,0.048l-0.14,0.048l-0.14,0.047l-0.141,0.046l-0.141,0.046l-0.141,0.044l-0.142,0.044l-0.142,0.043l-0.142,0.042l-0.143,0.041l-0.143,0.04l-0.144,0.039l-0.144,0.039l-0.144,0.037l-0.145,0.037l-0.145,0.036l-0.145,0.035l-0.146,0.034l-0.145,0.034l-0.147,0.032l-0.146,0.031l-0.147,0.031l-0.148,0.03l-0.147,0.028l-0.148,0.028l-0.148,0.027l-0.149,0.026l-0.149,0.026l-0.149,0.024l-0.149,0.023l-0.15,0.023l-0.15,0.021l-0.151,0.021l-0.15,0.019l-0.151,0.019l-0.151,0.018l-0.152,0.017l-0.152,0.016l-0.152,0.015l-0.152,0.014l-0.153,0.013l-0.153,0.012l-0.153,0.011l-0.153,0.01l-0.154,0.01l-0.154,0.008l-0.154,0.007l-0.154,0.007l-0.155,0.005l-0.155,0.004l-0.155,0.004l-0.156,0.002l-0.155,0.002l-0.156,0l-0.156,0l-0.156,-0.002l-0.155,-0.002l-0.155,-0.004l-0.155,-0.004l-0.155,-0.005l-0.154,-0.007l-0.154,-0.007l-0.154,-0.008l-0.154,-0.01l-0.153,-0.01l-0.153,-0.011l-0.153,-0.012l-0.153,-0.013l-0.152,-0.014l-0.152,-0.015l-0.152,-0.016l-0.152,-0.017l-0.151,-0.018l-0.151,-0.019l-0.15,-0.019l-0.151,-0.021l-0.15,-0.021l-0.15,-0.023l-0.149,-0.023l-0.149,-0.024l-0.149,-0.026l-0.149,-0.026l-0.148,-0.027l-0.148,-0.028l-0.147,-0.028l-0.148,-0.03l-0.147,-0.031l-0.146,-0.031l-0.147,-0.032l-0.146,-0.034l-0.145,-0.034l-0.146,-0.035l-0.145,-0.036l-0.144,-0.037l-0.144,-0.037l-0.144,-0.039l-0.144,-0.039l-0.143,-0.04l-0.143,-0.041l-0.142,-0.042l-0.142,-0.043l-0.142,-0.044l-0.142,-0.044l-0.141,-0.046l-0.14,-0.046l-0.14,-0.047l-0.14,-0.048l-0.14,-0.048l-0.139,-0.05l-0.138,-0.05l-0.139,-0.051l-0.138,-0.052l-0.137,-0.053l-0.137,-0.054l-0.137,-0.054l-0.136,-0.055l-0.136,-0.056l-0.135,-0.057l-0.135,-0.058l-0.135,-0.058l-0.134,-0.059l-0.134,-0.06l-0.133,-0.061l-0.133,-0.062l-0.133,-0.062l-0.132,-0.063l-0.131,-0.064l-0.131,-0.065l-0.131,-0.065l-0.13,-0.067l-0.13,-0.067l-0.129,-0.067l-0.129,-0.069l-0.128,-0.069l-0.128,-0.07l-0.128,-0.071l-0.127,-0.072l-0.126,-0.072l-0.126,-0.073l-0.126,-0.074l-0.125,-0.074l-0.124,-0.075l-0.124,-0.076l-0.124,-0.077l-0.123,-0.077l-0.123,-0.078l-0.122,-0.079l-0.121,-0.08l-0.121,-0.08l-0.121,-0.081l-0.12,-0.081l-0.119,-0.083l-0.119,-0.083l-0.119,-0.084l-0.118,-0.084l-0.117,-0.085l-0.117,-0.086l-0.116,-0.086l-0.116,-0.088l-0.115,-0.087l-0.115,-0.089l-0.114,-0.089l-0.114,-0.09l-0.113,-0.091l-0.113,-0.091l-0.112,-0.092l-0.111,-0.092l-0.111,-0.093l-0.11,-0.094l-0.11,-0.095l-0.109,-0.095l-0.108,-0.095l-0.108,-0.097l-0.108,-0.097l-0.107,-0.097l-0.106,-0.099l-0.105,-0.099l-0.105,-0.099l-0.105,-0.1l-0.104,-0.101l-0.103,-0.102l-0.102,-0.102l-0.102,-0.102l-0.102,-0.103l-0.101,-0.104l-0.1,-0.105l-0.099,-0.105l-0.099,-0.105l-0.099,-0.106l-0.097,-0.107l-0.097,-0.108l-0.097,-0.108l-0.095,-0.108l-0.095,-0.109l-0.095,-0.11l-0.094,-0.11l-0.093,-0.111l-0.092,-0.111l-0.092,-0.112l-0.091,-0.113l-0.091,-0.113l-0.09,-0.114l-0.089,-0.114l-0.089,-0.115l-0.087,-0.115l-0.088,-0.116l-0.086,-0.116l-0.086,-0.117l-0.085,-0.117l-0.084,-0.118l-0.084,-0.119l-0.083,-0.119l-0.083,-0.119l-0.081,-0.12l-0.081,-0.121l-0.08,-0.121l-0.08,-0.121l-0.079,-0.122l-0.078,-0.123l-0.077,-0.123l-0.077,-0.124l-0.076,-0.124l-0.075,-0.124l-0.075,-0.125l-0.073,-0.126l-0.073,-0.126l-0.072,-0.126l-0.072,-0.127l-0.071,-0.128l-0.07,-0.128l-0.069,-0.128l-0.069,-0.129l-0.067,-0.129l-0.067,-0.13l-0.067,-0.13l-0.065,-0.131l-0.065,-0.131l-0.064,-0.131l-0.063,-0.132l-0.062,-0.133l-0.062,-0.133l-0.061,-0.133l-0.06,-0.134l-0.059,-0.134l-0.058,-0.135l-0.058,-0.135l-0.057,-0.135l-0.056,-0.136l-0.055,-0.136l-0.054,-0.137l-0.054,-0.137l-0.053,-0.137l-0.052,-0.138l-0.051,-0.139l-0.05,-0.138l-0.05,-0.139l-0.048,-0.14l-0.048,-0.14l-0.047,-0.14l-0.046,-0.14l-0.046,-0.141l-0.044,-0.142l-0.044,-0.142l-0.043,-0.142l-0.042,-0.142l-0.041,-0.143l-0.04,-0.143l-0.039,-0.144l-0.039,-0.144l-0.038,-0.144l-0.036,-0.145l-0.036,-0.144l-0.035,-0.146l-0.034,-0.145l-0.034,-0.146l-0.032,-0.147l-0.031,-0.146l-0.031,-0.147l-0.03,-0.148l-0.028,-0.147l-0.028,-0.148l-0.027,-0.148l-0.026,-0.149l-0.026,-0.149l-0.024,-0.149l-0.023,-0.149l-0.023,-0.15l-0.021,-0.15l-0.021,-0.151l-0.019,-0.15l-0.019,-0.151l-0.018,-0.151l-0.017,-0.152l-0.016,-0.152l-0.015,-0.152l-0.014,-0.152l-0.013,-0.153l-0.012,-0.153l-0.011,-0.153l-0.01,-0.153l-0.01,-0.154l-0.008,-0.154l-0.007,-0.154l-0.007,-0.154l-0.005,-0.155l-0.004,-0.155l-0.004,-0.155l-0.002,-0.155l-0.002,-0.156l0,-0.156l0,-0.156l0.002,-0.155l0.002,-0.156l0.004,-0.155l0.004,-0.155l0.005,-0.155l0.007,-0.154l0.007,-0.154l0.008,-0.154l0.01,-0.154l0.01,-0.153l0.011,-0.153l0.012,-0.153l0.013,-0.153l0.014,-0.152l0.015,-0.152l0.016,-0.152l0.017,-0.152l0.018,-0.151l0.019,-0.151l0.019,-0.15l0.021,-0.151l0.021,-0.15l0.023,-0.15l0.023,-0.149l0.024,-0.149l0.026,-0.149l0.026,-0.149l0.027,-0.148l0.028,-0.148l0.028,-0.147l0.03,-0.148l0.031,-0.147l0.031,-0.146l0.032,-0.147l0.034,-0.146l0.034,-0.145l0.035,-0.145l0.036,-0.145l0.036,-0.145l0.038,-0.144l0.039,-0.144l0.039,-0.144l0.04,-0.143l0.041,-0.143l0.042,-0.142l0.043,-0.142l0.044,-0.142l0.044,-0.141l0.046,-0.141l0.046,-0.141l0.047,-0.14l0.048,-0.14l0.048,-0.14l0.05,-0.139l0.05,-0.138l0.051,-0.139l0.052,-0.138l0.053,-0.137l0.054,-0.137l0.054,-0.137l0.055,-0.136l0.056,-0.136l0.057,-0.135l0.058,-0.135l0.058,-0.135l0.059,-0.134l0.06,-0.134l0.061,-0.133l0.062,-0.133l0.062,-0.132l0.063,-0.132l0.064,-0.132l0.065,-0.131l0.065,-0.131l0.067,-0.13l0.067,-0.13l0.067,-0.129l0.069,-0.129l0.069,-0.128l0.07,-0.128l0.071,-0.128l0.072,-0.127l0.072,-0.126l0.073,-0.126l0.073,-0.126l0.075,-0.125l0.075,-0.124l0.076,-0.124l0.077,-0.124l0.077,-0.123l0.078,-0.122l0.079,-0.122l0.08,-0.122l0.08,-0.121l0.081,-0.121l0.081,-0.12l0.083,-0.119l0.083,-0.119l0.084,-0.119l0.084,-0.118l0.085,-0.117l0.086,-0.117l0.086,-0.116l0.088,-0.116l0.087,-0.115l0.089,-0.115l0.089,-0.114l0.09,-0.114l0.091,-0.113l0.091,-0.112l0.092,-0.112l0.092,-0.112l0.093,-0.111l0.094,-0.11l0.095,-0.11l0.095,-0.109l0.095,-0.108l0.097,-0.108l0.097,-0.108l0.097,-0.106l0.099,-0.107l0.099,-0.105l0.099,-0.105l0.1,-0.105l0.101,-0.104l0.102,-0.103l0.102,-0.102l0.102,-0.102l0.103,-0.102l0.104,-0.101l0.105,-0.1l0.105,-0.099l0.105,-0.099l0.106,-0.098l0.107,-0.098l0.108,-0.097l0.108,-0.097l0.108,-0.095l0.109,-0.095l0.11,-0.095l0.11,-0.094l0.111,-0.093l0.111,-0.092l0.112,-0.092l0.113,-0.091l0.113,-0.091l0.114,-0.09l0.114,-0.089l0.115,-0.088l0.115,-0.088l0.116,-0.088l0.116,-0.086l0.117,-0.086l0.117,-0.085l0.118,-0.084l0.119,-0.084l0.119,-0.083l0.119,-0.083l0.12,-0.081l0.121,-0.081l0.121,-0.08l0.121,-0.08l0.122,-0.079l0.123,-0.078l0.123,-0.077l0.124,-0.077l0.124,-0.076l0.124,-0.075l0.125,-0.074l0.126,-0.074l0.126,-0.073l0.126,-0.072l0.127,-0.072l0.128,-0.071l0.128,-0.07l0.128,-0.069l0.129,-0.068l0.129,-0.068l0.13,-0.067l0.13,-0.066l0.131,-0.066l0.131,-0.065l0.131,-0.064l0.132,-0.063l0.133,-0.062l0.133,-0.062l0.133,-0.06l0.134,-0.06l0.134,-0.06l0.135,-0.058l0.135,-0.058l0.135,-0.057l0.136,-0.056l0.136,-0.055l0.137,-0.054l0.137,-0.054l0.137,-0.053l0.138,-0.052l0.139,-0.051l0.138,-0.05l0.139,-0.05l0.14,-0.048l0.14,-0.048l0.14,-0.047l0.14,-0.046l0.141,-0.046l0.142,-0.044l0.142,-0.044l0.142,-0.043l0.142,-0.042l0.143,-0.041l0.143,-0.04l0.144,-0.039l0.144,-0.039l0.144,-0.037l0.144,-0.037l0.145,-0.036l0.146,-0.035l0.145,-0.034l0.146,-0.033l0.147,-0.033l0.146,-0.031l0.147,-0.031l0.148,-0.03l0.147,-0.028l0.148,-0.028l0.148,-0.027l0.149,-0.026l0.149,-0.025l0.149,-0.025l0.149,-0.023l0.15,-0.023l0.15,-0.021l0.151,-0.021l0.15,-0.019l0.151,-0.019l0.151,-0.018l0.152,-0.017l0.152,-0.016l0.152,-0.015l0.152,-0.014l0.153,-0.013l0.153,-0.012l0.153,-0.011l0.153,-0.01l0.154,-0.009l0.154,-0.009l0.154,-0.007l0.154,-0.006l0.155,-0.006l0.155,-0.004l0.155,-0.004l0.155,-0.002l0.156,-0.002l0.156,0l0.156,0Zm-0.248,10l-0.093,0.001l-0.092,0.002l-0.091,0.002l-0.092,0.002l-0.092,0.003l-0.09,0.004l-0.091,0.004l-0.091,0.005l-0.09,0.006l-0.091,0.006l-0.09,0.006l-0.089,0.007l-0.09,0.008l-0.089,0.008l-0.09,0.009l-0.089,0.01l-0.089,0.009l-0.088,0.011l-0.088,0.011l-0.088,0.011l-0.088,0.012l-0.088,0.013l-0.087,0.013l-0.088,0.014l-0.087,0.014l-0.087,0.015l-0.086,0.015l-0.087,0.015l-0.087,0.017l-0.085,0.016l-0.085,0.018l-0.087,0.018l-0.085,0.018l-0.085,0.019l-0.085,0.019l-0.085,0.02l-0.084,0.02l-0.085,0.021l-0.084,0.022l-0.084,0.022l-0.084,0.022l-0.084,0.023l-0.083,0.023l-0.083,0.024l-0.083,0.025l-0.082,0.024l-0.083,0.026l-0.083,0.026l-0.081,0.026l-0.082,0.027l-0.081,0.027l-0.081,0.028l-0.082,0.029l-0.081,0.028l-0.081,0.03l-0.081,0.03l-0.08,0.03l-0.079,0.03l-0.08,0.032l-0.08,0.032l-0.08,0.032l-0.079,0.032l-0.078,0.033l-0.079,0.034l-0.078,0.034l-0.079,0.035l-0.078,0.034l-0.077,0.036l-0.078,0.036l-0.078,0.037l-0.077,0.036l-0.076,0.037l-0.077,0.038l-0.076,0.039l-0.076,0.038l-0.076,0.039l-0.075,0.04l-0.076,0.04l-0.075,0.04l-0.074,0.041l-0.075,0.042l-0.074,0.042l-0.075,0.042l-0.073,0.043l-0.074,0.043l-0.073,0.043l-0.072,0.044l-0.074,0.045l-0.072,0.045l-0.072,0.045l-0.072,0.046l-0.071,0.046l-0.072,0.047l-0.071,0.047l-0.07,0.047l-0.071,0.048l-0.07,0.049l-0.07,0.048l-0.069,0.049l-0.07,0.05l-0.068,0.05l-0.068,0.05l-0.07,0.051l-0.068,0.052l-0.066,0.05l-0.068,0.052l-0.068,0.053l-0.067,0.053l-0.066,0.053l-0.066,0.054l-0.065,0.053l-0.066,0.055l-0.066,0.055l-0.064,0.055l-0.065,0.056l-0.064,0.055l-0.064,0.057l-0.064,0.057l-0.063,0.057l-0.062,0.057l-0.062,0.058l-0.063,0.058l-0.062,0.059l-0.061,0.059l-0.061,0.059l-0.061,0.059l-0.06,0.061l-0.06,0.06l-0.061,0.061l-0.059,0.061l-0.058,0.061l-0.058,0.062l-0.059,0.063l-0.058,0.062l-0.057,0.062l-0.057,0.063l-0.057,0.064l-0.057,0.064l-0.055,0.064l-0.056,0.065l-0.055,0.065l-0.054,0.064l-0.055,0.067l-0.055,0.066l-0.053,0.066l-0.053,0.066l-0.053,0.067l-0.052,0.066l-0.052,0.068l-0.052,0.068l-0.051,0.068l-0.051,0.068l-0.05,0.068l-0.05,0.07l-0.05,0.069l-0.049,0.069l-0.049,0.071l-0.048,0.069l-0.047,0.07l-0.049,0.072l-0.047,0.071l-0.046,0.071l-0.046,0.071l-0.046,0.072l-0.046,0.073l-0.044,0.072l-0.044,0.072l-0.045,0.073l-0.044,0.074l-0.043,0.073l-0.042,0.073l-0.042,0.074l-0.042,0.075l-0.042,0.075l-0.041,0.075l-0.04,0.074l-0.04,0.075l-0.04,0.076l-0.039,0.076l-0.039,0.076l-0.038,0.076l-0.037,0.077l-0.038,0.076l-0.037,0.078l-0.036,0.077l-0.036,0.077l-0.035,0.078l-0.036,0.079l-0.034,0.078l-0.034,0.078l-0.033,0.078l-0.034,0.079l-0.033,0.08l-0.032,0.079l-0.031,0.08l-0.032,0.08l-0.031,0.08l-0.03,0.08l-0.029,0.08l-0.03,0.081l-0.029,0.081l-0.028,0.082l-0.028,0.08l-0.027,0.082l-0.027,0.083l-0.026,0.08l-0.026,0.083l-0.026,0.083l-0.024,0.082l-0.025,0.084l-0.024,0.083l-0.023,0.083l-0.023,0.084l-0.022,0.083l-0.022,0.084l-0.022,0.084l-0.021,0.084l-0.02,0.085l-0.02,0.086l-0.02,0.085l-0.018,0.084l-0.019,0.086l-0.017,0.085l-0.018,0.086l-0.017,0.087l-0.016,0.085l-0.015,0.086l-0.016,0.087l-0.014,0.087l-0.015,0.088l-0.013,0.087l-0.013,0.087l-0.013,0.088l-0.012,0.088l-0.011,0.088l-0.011,0.088l-0.011,0.088l-0.01,0.09l-0.009,0.089l-0.009,0.089l-0.008,0.089l-0.008,0.089l-0.007,0.091l-0.006,0.089l-0.006,0.09l-0.006,0.091l-0.005,0.091l-0.004,0.091l-0.004,0.091l-0.003,0.092l-0.003,0.091l-0.002,0.09l-0.001,0.094l-0.001,0.092l0,0.092l0,0.092l0.001,0.092l0.001,0.094l0.002,0.09l0.003,0.091l0.003,0.093l0.004,0.09l0.004,0.091l0.005,0.091l0.006,0.091l0.006,0.09l0.006,0.089l0.007,0.091l0.008,0.089l0.008,0.089l0.009,0.09l0.009,0.089l0.01,0.089l0.011,0.088l0.011,0.088l0.011,0.088l0.012,0.088l0.013,0.088l0.013,0.087l0.013,0.087l0.015,0.088l0.014,0.087l0.016,0.087l0.015,0.086l0.016,0.085l0.017,0.087l0.018,0.087l0.017,0.084l0.019,0.086l0.018,0.084l0.02,0.085l0.02,0.086l0.02,0.085l0.021,0.084l0.022,0.084l0.022,0.085l0.022,0.082l0.023,0.084l0.023,0.083l0.024,0.083l0.025,0.084l0.024,0.082l0.026,0.083l0.026,0.083l0.026,0.081l0.027,0.082l0.027,0.082l0.028,0.081l0.028,0.081l0.029,0.081l0.03,0.081l0.029,0.08l0.03,0.08l0.031,0.08l0.032,0.08l0.031,0.08l0.032,0.079l0.033,0.08l0.034,0.079l0.033,0.078l0.034,0.078l0.034,0.078l0.036,0.079l0.035,0.078l0.036,0.077l0.036,0.078l0.037,0.077l0.038,0.077l0.037,0.076l0.038,0.076l0.039,0.076l0.039,0.076l0.04,0.076l0.04,0.075l0.04,0.074l0.041,0.075l0.042,0.075l0.042,0.075l0.042,0.074l0.043,0.073l0.042,0.073l0.044,0.074l0.045,0.074l0.044,0.072l0.044,0.072l0.046,0.072l0.046,0.072l0.046,0.071l0.046,0.071l0.047,0.071l0.049,0.072l0.047,0.07l0.048,0.069l0.049,0.071l0.049,0.069l0.05,0.069l0.05,0.07l0.05,0.068l0.051,0.068l0.051,0.068l0.052,0.069l0.052,0.067l0.052,0.066l0.053,0.067l0.053,0.067l0.053,0.066l0.055,0.065l0.054,0.067l0.055,0.064l0.055,0.065l0.056,0.065l0.056,0.064l0.056,0.064l0.057,0.064l0.057,0.063l0.057,0.062l0.058,0.062l0.059,0.063l0.058,0.062l0.058,0.061l0.06,0.061l0.06,0.061l0.06,0.06l0.06,0.061l0.061,0.059l0.061,0.059l0.061,0.059l0.062,0.059l0.063,0.058l0.062,0.058l0.062,0.057l0.064,0.057l0.063,0.057l0.064,0.057l0.064,0.055l0.065,0.056l0.064,0.055l0.066,0.055l0.065,0.054l0.066,0.055l0.066,0.053l0.066,0.053l0.067,0.053l0.068,0.052l0.067,0.052l0.067,0.052l0.069,0.051l0.068,0.051l0.068,0.05l0.07,0.05l0.069,0.05l0.069,0.049l0.07,0.049l0.07,0.048l0.071,0.048l0.07,0.047l0.071,0.047l0.072,0.047l0.071,0.046l0.072,0.046l0.072,0.045l0.073,0.045l0.072,0.045l0.073,0.044l0.073,0.043l0.074,0.044l0.073,0.042l0.075,0.042l0.074,0.042l0.074,0.042l0.075,0.041l0.075,0.04l0.076,0.04l0.076,0.04l0.075,0.039l0.076,0.039l0.076,0.038l0.076,0.037l0.078,0.038l0.076,0.037l0.078,0.036l0.077,0.036l0.078,0.036l0.079,0.035l0.077,0.034l0.079,0.034l0.079,0.034l0.078,0.033l0.08,0.033l0.079,0.032l0.079,0.031l0.081,0.032l0.079,0.03l0.08,0.03l0.081,0.03l0.081,0.03l0.081,0.029l0.081,0.028l0.082,0.028l0.081,0.027l0.082,0.027l0.082,0.026l0.082,0.026l0.083,0.026l0.083,0.025l0.082,0.024l0.083,0.024l0.083,0.023l0.084,0.023l0.084,0.023l0.084,0.021l0.084,0.022l0.085,0.021l0.084,0.02l0.085,0.02l0.085,0.019l0.085,0.019l0.085,0.018l0.086,0.018l0.086,0.018l0.086,0.016l0.086,0.017l0.087,0.015l0.086,0.016l0.087,0.014l0.087,0.015l0.088,0.013l0.087,0.013l0.088,0.013l0.088,0.012l0.088,0.011l0.088,0.011l0.088,0.011l0.09,0.01l0.088,0.009l0.09,0.009l0.089,0.008l0.09,0.008l0.09,0.007l0.089,0.006l0.09,0.006l0.091,0.006l0.091,0.005l0.09,0.004l0.092,0.004l0.091,0.003l0.091,0.003l0.093,0.002l0.092,0.001l0.092,0.001l0.092,0l0.092,0l0.092,-0.001l0.092,-0.001l0.093,-0.002l0.091,-0.003l0.091,-0.003l0.092,-0.004l0.09,-0.004l0.091,-0.005l0.091,-0.006l0.09,-0.006l0.089,-0.006l0.09,-0.007l0.09,-0.008l0.089,-0.008l0.09,-0.009l0.088,-0.009l0.089,-0.01l0.089,-0.011l0.088,-0.011l0.088,-0.011l0.088,-0.012l0.088,-0.013l0.087,-0.013l0.088,-0.014l0.087,-0.014l0.087,-0.014l0.086,-0.016l0.087,-0.015l0.086,-0.017l0.085,-0.016l0.087,-0.018l0.085,-0.017l0.086,-0.019l0.085,-0.019l0.085,-0.019l0.085,-0.02l0.085,-0.02l0.084,-0.021l0.084,-0.022l0.084,-0.021l0.084,-0.023l0.083,-0.023l0.083,-0.023l0.084,-0.024l0.082,-0.024l0.083,-0.025l0.083,-0.026l0.081,-0.026l0.083,-0.026l0.082,-0.027l0.081,-0.027l0.082,-0.028l0.081,-0.028l0.081,-0.029l0.08,-0.03l0.081,-0.029l0.08,-0.031l0.08,-0.03l0.081,-0.032l0.079,-0.031l0.079,-0.032l0.08,-0.033l0.078,-0.033l0.079,-0.034l0.079,-0.034l0.078,-0.034l0.078,-0.035l0.078,-0.036l0.077,-0.036l0.078,-0.036l0.076,-0.037l0.077,-0.037l0.077,-0.038l0.076,-0.038l0.076,-0.039l0.076,-0.039l0.076,-0.04l0.074,-0.04l0.076,-0.04l0.075,-0.042l0.074,-0.041l0.074,-0.042l0.074,-0.041l0.074,-0.043l0.074,-0.044l0.072,-0.043l0.074,-0.044l0.072,-0.045l0.073,-0.045l0.072,-0.045l0.072,-0.046l0.071,-0.046l0.071,-0.046l0.071,-0.047l0.072,-0.048l0.07,-0.048l0.069,-0.048l0.071,-0.049l0.069,-0.049l0.069,-0.05l0.069,-0.05l0.069,-0.05l0.068,-0.051l0.068,-0.051l0.068,-0.052l0.068,-0.052l0.066,-0.052l0.067,-0.053l0.066,-0.053l0.066,-0.053l0.067,-0.055l0.065,-0.054l0.065,-0.055l0.065,-0.055l0.065,-0.056l0.064,-0.056l0.064,-0.056l0.063,-0.057l0.063,-0.057l0.063,-0.057l0.063,-0.058l0.062,-0.058l0.061,-0.059l0.062,-0.058l0.061,-0.06l0.061,-0.06l0.06,-0.06l0.06,-0.06l0.06,-0.06l0.059,-0.062l0.06,-0.062l0.058,-0.061l0.058,-0.062l0.058,-0.063l0.057,-0.063l0.057,-0.063l0.057,-0.063l0.056,-0.064l0.056,-0.064l0.055,-0.064l0.056,-0.066l0.055,-0.065l0.054,-0.066l0.054,-0.065l0.053,-0.066l0.054,-0.066l0.053,-0.068l0.053,-0.067l0.051,-0.067l0.051,-0.067l0.052,-0.069l0.051,-0.068l0.05,-0.068l0.05,-0.07l0.05,-0.069l0.049,-0.069l0.048,-0.07l0.049,-0.07l0.048,-0.071l0.047,-0.07l0.048,-0.072l0.046,-0.071l0.046,-0.071l0.046,-0.072l0.045,-0.071l0.045,-0.073l0.045,-0.073l0.044,-0.073l0.043,-0.073l0.043,-0.074l0.043,-0.074l0.043,-0.074l0.041,-0.074l0.041,-0.074l0.041,-0.075l0.041,-0.076l0.04,-0.075l0.04,-0.075l0.039,-0.075l0.039,-0.077l0.038,-0.077l0.037,-0.075l0.038,-0.077l0.037,-0.077l0.036,-0.077l0.036,-0.078l0.036,-0.079l0.034,-0.077l0.035,-0.078l0.034,-0.08l0.034,-0.078l0.033,-0.078l0.033,-0.08l0.032,-0.079l0.031,-0.08l0.032,-0.08l0.03,-0.079l0.03,-0.081l0.03,-0.08l0.029,-0.08l0.029,-0.082l0.029,-0.081l0.028,-0.082l0.027,-0.081l0.027,-0.081l0.026,-0.083l0.026,-0.082l0.026,-0.083l0.024,-0.083l0.025,-0.082l0.024,-0.084l0.023,-0.083l0.023,-0.083l0.023,-0.085l0.021,-0.083l0.022,-0.084l0.021,-0.085l0.02,-0.084l0.02,-0.085l0.019,-0.084l0.019,-0.086l0.018,-0.086l0.018,-0.085l0.018,-0.086l0.016,-0.086l0.017,-0.087l0.015,-0.086l0.015,-0.086l0.015,-0.087l0.014,-0.087l0.014,-0.088l0.013,-0.087l0.013,-0.088l0.012,-0.088l0.011,-0.087l0.011,-0.09l0.011,-0.088l0.009,-0.087l0.01,-0.09l0.009,-0.09l0.008,-0.089l0.008,-0.09l0.007,-0.088l0.006,-0.091l0.006,-0.09l0.006,-0.091l0.005,-0.091l0.004,-0.09l0.004,-0.093l0.003,-0.091l0.002,-0.09l0.002,-0.093l0.002,-0.092l0.001,-0.091l0,-0.093l0,-0.093l-0.001,-0.091l-0.002,-0.092l-0.002,-0.093l-0.002,-0.09l-0.003,-0.091l-0.004,-0.093l-0.004,-0.09l-0.005,-0.091l-0.006,-0.091l-0.006,-0.09l-0.006,-0.091l-0.007,-0.088l-0.008,-0.09l-0.008,-0.089l-0.009,-0.089l-0.01,-0.091l-0.009,-0.087l-0.011,-0.088l-0.011,-0.09l-0.011,-0.087l-0.012,-0.088l-0.013,-0.088l-0.013,-0.087l-0.014,-0.088l-0.014,-0.087l-0.015,-0.087l-0.015,-0.086l-0.015,-0.086l-0.017,-0.087l-0.016,-0.086l-0.018,-0.085l-0.018,-0.086l-0.018,-0.086l-0.019,-0.085l-0.019,-0.085l-0.02,-0.085l-0.02,-0.084l-0.021,-0.085l-0.022,-0.084l-0.021,-0.083l-0.023,-0.085l-0.023,-0.083l-0.023,-0.083l-0.024,-0.084l-0.024,-0.082l-0.025,-0.083l-0.026,-0.083l-0.026,-0.082l-0.026,-0.082l-0.027,-0.082l-0.027,-0.081l-0.028,-0.081l-0.029,-0.082l-0.029,-0.082l-0.029,-0.08l-0.029,-0.08l-0.031,-0.081l-0.03,-0.079l-0.032,-0.08l-0.031,-0.08l-0.032,-0.079l-0.033,-0.08l-0.033,-0.078l-0.034,-0.078l-0.034,-0.08l-0.035,-0.078l-0.034,-0.077l-0.036,-0.079l-0.036,-0.078l-0.036,-0.076l-0.037,-0.078l-0.038,-0.076l-0.037,-0.076l-0.039,-0.077l-0.039,-0.077l-0.038,-0.075l-0.04,-0.075l-0.04,-0.075l-0.041,-0.076l-0.041,-0.075l-0.041,-0.074l-0.041,-0.074l-0.043,-0.074l-0.043,-0.074l-0.043,-0.074l-0.043,-0.073l-0.044,-0.072l-0.045,-0.073l-0.045,-0.073l-0.045,-0.072l-0.046,-0.072l-0.046,-0.071l-0.046,-0.071l-0.048,-0.072l-0.047,-0.07l-0.048,-0.071l-0.049,-0.07l-0.048,-0.07l-0.049,-0.069l-0.05,-0.069l-0.05,-0.07l-0.05,-0.068l-0.051,-0.068l-0.052,-0.069l-0.051,-0.067l-0.051,-0.067l-0.053,-0.067l-0.053,-0.068l-0.054,-0.066l-0.053,-0.065l-0.054,-0.066l-0.054,-0.066l-0.055,-0.065l-0.056,-0.066l-0.055,-0.064l-0.055,-0.064l-0.057,-0.064l-0.057,-0.063l-0.057,-0.063l-0.057,-0.063l-0.058,-0.063l-0.058,-0.062l-0.059,-0.061l-0.059,-0.062l-0.059,-0.061l-0.06,-0.061l-0.06,-0.06l-0.06,-0.06l-0.061,-0.06l-0.061,-0.06l-0.062,-0.058l-0.061,-0.059l-0.062,-0.058l-0.063,-0.058l-0.063,-0.057l-0.063,-0.057l-0.063,-0.057l-0.064,-0.056l-0.064,-0.056l-0.065,-0.056l-0.065,-0.055l-0.065,-0.055l-0.065,-0.054l-0.066,-0.054l-0.066,-0.054l-0.067,-0.053l-0.067,-0.053l-0.067,-0.052l-0.067,-0.052l-0.068,-0.052l-0.068,-0.051l-0.068,-0.051l-0.069,-0.05l-0.069,-0.05l-0.069,-0.05l-0.069,-0.049l-0.07,-0.049l-0.07,-0.048l-0.071,-0.048l-0.071,-0.048l-0.071,-0.046l-0.071,-0.047l-0.071,-0.046l-0.072,-0.046l-0.072,-0.045l-0.072,-0.045l-0.074,-0.045l-0.073,-0.044l-0.072,-0.043l-0.074,-0.043l-0.074,-0.043l-0.074,-0.042l-0.074,-0.042l-0.074,-0.041l-0.075,-0.042l-0.076,-0.04l-0.074,-0.04l-0.076,-0.04l-0.076,-0.039l-0.076,-0.038l-0.076,-0.039l-0.077,-0.038l-0.076,-0.037l-0.077,-0.036l-0.078,-0.037l-0.078,-0.036l-0.077,-0.036l-0.078,-0.034l-0.078,-0.035l-0.079,-0.034l-0.079,-0.034l-0.079,-0.033l-0.079,-0.032l-0.079,-0.032l-0.08,-0.032l-0.08,-0.032l-0.08,-0.03l-0.08,-0.031l-0.081,-0.029l-0.08,-0.03l-0.081,-0.028l-0.081,-0.029l-0.082,-0.028l-0.081,-0.027l-0.082,-0.027l-0.082,-0.026l-0.083,-0.026l-0.082,-0.026l-0.082,-0.024l-0.083,-0.025l-0.084,-0.024l-0.083,-0.023l-0.084,-0.023l-0.083,-0.022l-0.084,-0.022l-0.084,-0.022l-0.084,-0.021l-0.085,-0.02l-0.085,-0.02l-0.085,-0.019l-0.085,-0.019l-0.086,-0.018l-0.086,-0.018l-0.085,-0.018l-0.086,-0.016l-0.086,-0.017l-0.087,-0.015l-0.086,-0.016l-0.087,-0.014l-0.087,-0.014l-0.088,-0.014l-0.087,-0.013l-0.088,-0.013l-0.088,-0.012l-0.088,-0.011l-0.089,-0.011l-0.088,-0.011l-0.088,-0.009l-0.089,-0.01l-0.09,-0.009l-0.089,-0.008l-0.09,-0.008l-0.089,-0.007l-0.09,-0.006l-0.091,-0.006l-0.09,-0.006l-0.091,-0.005l-0.091,-0.004l-0.091,-0.004l-0.091,-0.003l-0.092,-0.002l-0.091,-0.002l-0.092,-0.002l-0.093,-0.001l-0.092,0l-0.092,0Z" style="fill:#3b45b0;"/><path d="M19.72,78.826l10.494,78.475l-66.978,-22.995l56.484,-55.48Z" style="fill:#a2b500;"/><path d="M30.214,157.301l-66.978,-22.995l56.484,-55.48l10.494,78.475Zm-48.427,-27.199l36.371,12.487l-5.699,-42.614l-30.672,30.127Z" style="fill:#b03b41;"/><path d="M280.554,-35.63l-31.511,49.367l49.367,31.51l31.51,-49.366l-49.366,-31.511Z" style="fill:#7b3570;"/><path d="M329.92,-4.119l-31.51,49.366l-49.367,-31.51l31.511,-49.367l49.366,31.511Zm-67.067,14.807l32.508,20.749l20.75,-32.507l-32.508,-20.75l-20.75,32.508Z" style="fill:#92481e;"/><path d="M-34.78,163.453l491.042,0" style="fill:none;"/><rect x="-39.78" y="158.453" width="501.041" height="10"/><path d="M-27.806,55.366l491.041,0" style="fill:none;"/><rect x="-32.806" y="50.366" width="501.041" height="10"/></g></svg>